control3min_grf.mot
version=1
nRows=17
nColumns 19
inDegrees=yes
endheader
time	1_ground_force_vx	1_ground_force_vy	1_ground_force_vz	1_ground_force_px	1_ground_force_py	1_ground_force_pz	1_ground_torque_x	1_ground_torque_y	1_ground_torque_z	2_ground_force_vx	2_ground_force_vy	2_ground_force_vz	2_ground_force_px	2_ground_force_py	2_ground_force_pz	2_ground_torque_x	2_ground_torque_y	2_ground_torque_z
            2.502500	            6.631108	          248.436096	           -5.646432	           -0.271669	            0.006328	           -0.431560	            0.004326	            0.162087	           -0.003684	            9.234799	          271.461951	            3.639063	           -0.292691	            0.005281	           -0.656861	           -0.027694	           -0.814071	           -0.010913
            2.503000	            6.586573	          245.009860	           -5.385869	           -0.271752	            0.006329	           -0.431759	            0.004156	            0.154586	           -0.003398	            9.530582	          267.411247	            3.765273	           -0.293251	            0.005280	           -0.657002	           -0.030081	           -0.844020	           -0.011884
            2.503500	            6.541209	          241.765265	           -5.445525	           -0.271729	            0.006327	           -0.431113	            0.003891	            0.143829	           -0.003240	            9.405318	          263.175320	            3.750220	           -0.292870	            0.005278	           -0.656019	           -0.030953	           -0.866117	           -0.012342
            2.504000	            6.634221	          237.618189	           -5.234251	           -0.271988	            0.006329	           -0.431699	            0.003344	            0.119767	           -0.002638	            9.510152	          260.046484	            3.363586	           -0.292955	            0.005279	           -0.656473	           -0.029210	           -0.798734	           -0.010331
            2.504500	            6.818299	          234.373246	           -5.202763	           -0.271609	            0.006329	           -0.431658	            0.002686	            0.092313	           -0.002049	            9.804482	          256.365004	            3.209540	           -0.293166	            0.005278	           -0.656284	           -0.031860	           -0.833063	           -0.010429
            2.505000	            6.543429	          230.228065	           -5.449138	           -0.271870	            0.006329	           -0.431798	           -0.000537	           -0.018911	            0.000448	            9.299267	          253.599572	            3.575329	           -0.292939	            0.005280	           -0.656766	           -0.024711	           -0.673905	           -0.009501
            2.505500	            6.774180	          226.801489	           -5.097546	           -0.271742	            0.006326	           -0.431090	           -0.000770	           -0.025787	            0.000580	            9.406239	          249.917111	            3.515219	           -0.292777	            0.005279	           -0.656270	           -0.026057	           -0.692324	           -0.009738
            2.506000	            6.591091	          223.376996	           -5.249345	           -0.271432	            0.006328	           -0.431373	            0.000895	            0.030328	           -0.000713	            9.465655	          246.418987	            3.361931	           -0.293027	            0.005279	           -0.656494	           -0.025794	           -0.671501	           -0.009161
            2.506500	            6.730010	          220.130864	           -4.942608	           -0.271701	            0.006328	           -0.431344	            0.002752	            0.090022	           -0.002021	            9.802929	          243.841912	            3.399521	           -0.292738	            0.005282	           -0.657103	           -0.029536	           -0.734680	           -0.010243
            2.507000	            6.914333	          216.164661	           -4.868357	           -0.271658	            0.006330	           -0.431939	            0.006588	            0.205952	           -0.004638	            9.863092	          240.158947	            3.433288	           -0.293194	            0.005280	           -0.656900	           -0.029990	           -0.730235	           -0.010439
            2.507500	            6.823614	          212.739006	           -4.745248	           -0.271685	            0.006327	           -0.431249	            0.002805	            0.087447	           -0.001951	            9.787296	          235.186931	            3.321731	           -0.292799	            0.005275	           -0.655245	           -0.030940	           -0.743489	           -0.010501
            2.508000	            6.870540	          208.051714	           -4.673747	           -0.271647	            0.006333	           -0.432599	           -0.000018	           -0.000547	            0.000012	            9.797327	          232.424227	            3.452659	           -0.292707	            0.005277	           -0.655789	           -0.030250	           -0.717629	           -0.010660
            2.508500	            6.778746	          205.528960	           -4.913620	           -0.271953	            0.006330	           -0.431999	           -0.000648	           -0.019650	            0.000470	            9.670611	          228.557586	            3.157352	           -0.293075	            0.005274	           -0.655240	           -0.029266	           -0.691674	           -0.009555
            2.509000	            6.871186	          202.644334	           -4.834503	           -0.271644	            0.006324	           -0.430426	           -0.000977	           -0.028822	            0.000688	            9.728677	          225.427911	            2.958450	           -0.292838	            0.005275	           -0.655168	           -0.026873	           -0.622690	           -0.008172
            2.509500	            6.826879	          199.217704	           -4.482229	           -0.272198	            0.006328	           -0.431453	            0.003985	            0.116300	           -0.002617	            9.689056	          223.402772	            2.763530	           -0.292549	            0.005278	           -0.655805	           -0.023785	           -0.548424	           -0.006784
            2.510000	            6.919157	          195.972940	           -4.496370	           -0.271571	            0.006327	           -0.431310	            0.004198	            0.118903	           -0.002728	            9.796130	          219.719474	            2.938061	           -0.293040	            0.005276	           -0.655661	           -0.027079	           -0.607357	           -0.008122
            2.510500	            6.736279	          193.268919	           -4.507509	           -0.271566	            0.006326	           -0.430872	            0.002590	            0.074321	           -0.001733	            9.762676	          216.035502	            3.159580	           -0.293027	            0.005273	           -0.654797	           -0.026416	           -0.584547	           -0.008549
